<svg xmlns="http://www.w3.org/2000/svg" xmlns:xlink="http://www.w3.org/1999/xlink" zoomAndPan="magnify" preserveAspectRatio="xMidYMid meet" version="1.0" viewBox="2.7 97.43 363.05 175.65"><defs><g/><clipPath id="df1fb94beb"><path d="M 18.847656 135.617188 L 37.726562 135.617188 L 37.726562 155.40625 L 18.847656 155.40625 Z M 18.847656 135.617188 " clip-rule="nonzero"/></clipPath><clipPath id="d3f21a1796"><path d="M 24.199219 135.617188 L 34.566406 135.617188 L 34.566406 193.347656 L 24.199219 193.347656 Z M 24.199219 135.617188 " clip-rule="nonzero"/></clipPath><clipPath id="21857bb802"><path d="M 29.933594 124.644531 L 132.632812 124.644531 L 132.632812 139 L 29.933594 139 Z M 29.933594 124.644531 " clip-rule="nonzero"/></clipPath><clipPath id="56b17333c2"><path d="M 29.933594 259 L 132.632812 259 L 132.632812 273.40625 L 29.933594 273.40625 Z M 29.933594 259 " clip-rule="nonzero"/></clipPath><clipPath id="a30d83d907"><path d="M 11.363281 101.804688 L 151.160156 101.804688 L 151.160156 160.957031 L 11.363281 160.957031 Z M 11.363281 101.804688 " clip-rule="nonzero"/></clipPath><clipPath id="8e9b94155d"><path d="M 81.25 101.804688 L 151.132812 131.382812 L 81.25 160.957031 L 11.363281 131.382812 Z M 81.25 101.804688 " clip-rule="nonzero"/></clipPath></defs><g clip-path="url(#df1fb94beb)"><path fill="#f07b0a" d="M 30.75 115.835938 L 30.746094 115.828125 M 157.210938 126.308594 L 157.234375 126.300781 L 157.1875 126.300781 L 122.230469 113.246094 L 122.210938 113.21875 L 122.183594 113.226562 L 98.042969 104.210938 L 98.03125 104.207031 L 98.023438 104.183594 L 97.988281 104.191406 L 79.960938 97.457031 L 79.96875 97.445312 L 51.023438 108.253906 L 30.742188 115.828125 L 2.707031 126.300781 L 39.207031 139.933594 L 40.71875 140.496094 L 61.847656 148.390625 L 79.96875 155.160156 L 100.625 147.441406 L 100.628906 147.441406 L 119.222656 140.496094 L 124.058594 138.691406 L 157.199219 126.3125 L 157.222656 126.3125 L 157.210938 126.308594 " fill-opacity="1" fill-rule="nonzero"/></g><g clip-path="url(#d3f21a1796)"><path fill="#f07b0a" d="M 33.128906 178.648438 L 33.109375 178.4375 L 31.835938 165.203125 L 31.777344 164.621094 L 31.164062 158.246094 L 31.679688 158.246094 L 31.679688 151.160156 C 32.390625 150.523438 32.839844 149.601562 32.839844 148.570312 C 32.839844 148.042969 32.71875 147.542969 32.511719 147.097656 C 32.167969 146.371094 31.585938 145.78125 30.859375 145.429688 L 30.859375 136.816406 L 27.78125 135.667969 L 27.78125 145.460938 C 26.648438 146.035156 25.867188 147.210938 25.867188 148.570312 C 25.867188 149.601562 26.3125 150.523438 27.023438 151.160156 L 27.023438 158.246094 L 27.585938 158.246094 L 27.214844 162.0625 L 26.75 166.808594 L 25.605469 178.503906 L 25.601562 178.542969 L 24.980469 184.886719 L 24.429688 190.558594 C 24.414062 190.679688 24.414062 190.820312 24.429688 190.941406 C 24.613281 192.5 26.96875 193.671875 29.6875 193.566406 C 32.40625 193.460938 34.460938 192.113281 34.277344 190.558594 L 33.128906 178.648438 " fill-opacity="1" fill-rule="nonzero"/></g><path fill="#f07b0a" d="M 83.453125 207.308594 C 83.453125 207.601562 83.398438 207.882812 83.285156 208.15625 C 83.175781 208.425781 83.015625 208.664062 82.808594 208.871094 C 82.601562 209.078125 82.363281 209.238281 82.089844 209.351562 C 81.820312 209.460938 81.539062 209.519531 81.246094 209.519531 C 80.953125 209.519531 80.671875 209.460938 80.402344 209.351562 C 80.132812 209.238281 79.890625 209.078125 79.683594 208.871094 C 79.476562 208.664062 79.320312 208.425781 79.207031 208.15625 C 79.09375 207.882812 79.039062 207.601562 79.039062 207.308594 C 79.039062 207.015625 79.09375 206.734375 79.207031 206.464844 C 79.320312 206.195312 79.476562 205.957031 79.683594 205.75 C 79.890625 205.542969 80.132812 205.382812 80.402344 205.269531 C 80.671875 205.15625 80.953125 205.101562 81.246094 205.101562 C 81.539062 205.101562 81.820312 205.15625 82.089844 205.269531 C 82.363281 205.382812 82.601562 205.542969 82.808594 205.75 C 83.015625 205.957031 83.175781 206.195312 83.285156 206.464844 C 83.398438 206.734375 83.453125 207.015625 83.453125 207.308594 Z M 83.453125 207.308594 " fill-opacity="1" fill-rule="nonzero"/><path fill="#f07b0a" d="M 83.453125 216.035156 C 83.453125 216.328125 83.398438 216.609375 83.285156 216.882812 C 83.175781 217.152344 83.015625 217.390625 82.808594 217.597656 C 82.601562 217.804688 82.363281 217.964844 82.089844 218.074219 C 81.820312 218.1875 81.539062 218.242188 81.246094 218.242188 C 80.953125 218.242188 80.671875 218.1875 80.402344 218.074219 C 80.132812 217.964844 79.890625 217.804688 79.683594 217.597656 C 79.476562 217.390625 79.320312 217.152344 79.207031 216.882812 C 79.09375 216.609375 79.039062 216.328125 79.039062 216.035156 C 79.039062 215.742188 79.09375 215.460938 79.207031 215.191406 C 79.320312 214.921875 79.476562 214.683594 79.683594 214.476562 C 79.890625 214.269531 80.132812 214.109375 80.402344 213.996094 C 80.671875 213.882812 80.953125 213.828125 81.246094 213.828125 C 81.539062 213.828125 81.820312 213.882812 82.089844 213.996094 C 82.363281 214.109375 82.601562 214.269531 82.808594 214.476562 C 83.015625 214.683594 83.175781 214.921875 83.285156 215.191406 C 83.398438 215.460938 83.453125 215.742188 83.453125 216.035156 Z M 83.453125 216.035156 " fill-opacity="1" fill-rule="nonzero"/><path fill="#013b55" d="M 41.308594 262.652344 C 41.015625 262.652344 40.734375 262.59375 40.464844 262.484375 C 40.191406 262.371094 39.953125 262.210938 39.746094 262.003906 C 39.539062 261.796875 39.378906 261.558594 39.269531 261.289062 C 39.15625 261.019531 39.101562 260.734375 39.101562 260.445312 L 39.101562 249.351562 C 39.257812 235.980469 43.375 225.875 51.640625 218.4375 L 65.597656 205.683594 C 66.558594 204.972656 67.335938 204.09375 67.921875 203.050781 C 68.511719 202.007812 68.859375 200.890625 68.96875 199.695312 C 68.867188 198.546875 68.53125 197.46875 67.964844 196.460938 C 67.398438 195.453125 66.648438 194.605469 65.71875 193.921875 L 56.886719 185.867188 L 51.589844 181.027344 C 43.320312 173.589844 39.222656 163.484375 39.046875 150.148438 L 39.046875 138.757812 C 39.046875 138.464844 39.101562 138.179688 39.214844 137.910156 C 39.328125 137.640625 39.488281 137.402344 39.695312 137.195312 C 39.902344 136.988281 40.140625 136.828125 40.410156 136.714844 C 40.679688 136.605469 40.960938 136.546875 41.253906 136.546875 C 41.546875 136.546875 41.828125 136.605469 42.101562 136.714844 C 42.371094 136.828125 42.609375 136.988281 42.816406 137.195312 C 43.023438 137.402344 43.183594 137.640625 43.296875 137.910156 C 43.40625 138.179688 43.464844 138.464844 43.464844 138.757812 L 43.464844 150.078125 C 43.621094 162.25 47.136719 171.046875 54.539062 177.722656 L 59.835938 182.5625 L 68.667969 190.617188 C 70.078125 191.707031 71.191406 193.042969 72.011719 194.625 C 72.832031 196.203125 73.285156 197.882812 73.367188 199.660156 C 73.269531 201.484375 72.796875 203.207031 71.949219 204.828125 C 71.101562 206.445312 69.953125 207.816406 68.511719 208.933594 L 54.554688 221.671875 C 47.136719 228.347656 43.621094 237.144531 43.464844 249.332031 L 43.464844 260.40625 C 43.46875 260.699219 43.417969 260.980469 43.308594 261.25 C 43.203125 261.523438 43.050781 261.761719 42.847656 261.972656 C 42.644531 262.183594 42.410156 262.347656 42.144531 262.464844 C 41.878906 262.582031 41.597656 262.644531 41.308594 262.652344 Z M 41.308594 262.652344 " fill-opacity="1" fill-rule="nonzero"/><path fill="#013b55" d="M 121.167969 262.652344 C 120.875 262.652344 120.59375 262.59375 120.324219 262.484375 C 120.050781 262.371094 119.8125 262.210938 119.605469 262.003906 C 119.398438 261.796875 119.238281 261.558594 119.128906 261.289062 C 119.015625 261.019531 118.960938 260.734375 118.960938 260.445312 L 118.960938 249.351562 C 118.816406 237.179688 115.304688 228.382812 107.882812 221.707031 L 93.910156 208.953125 C 92.476562 207.84375 91.339844 206.484375 90.496094 204.875 C 89.65625 203.269531 89.1875 201.5625 89.089844 199.75 C 89.175781 197.980469 89.621094 196.308594 90.421875 194.734375 C 91.226562 193.15625 92.320312 191.8125 93.699219 190.707031 L 103.292969 181.875 C 104.828125 180.460938 106.347656 179.066406 107.882812 177.6875 C 115.304688 171.011719 118.816406 162.214844 118.960938 150.027344 L 118.960938 138.757812 C 118.960938 138.464844 119.015625 138.179688 119.128906 137.910156 C 119.238281 137.640625 119.398438 137.402344 119.605469 137.195312 C 119.8125 136.988281 120.050781 136.828125 120.320312 136.714844 C 120.59375 136.605469 120.875 136.546875 121.167969 136.546875 C 121.460938 136.546875 121.742188 136.605469 122.011719 136.714844 C 122.28125 136.828125 122.519531 136.988281 122.726562 137.195312 C 122.9375 137.402344 123.09375 137.640625 123.207031 137.910156 C 123.320312 138.179688 123.375 138.464844 123.375 138.757812 L 123.375 150.078125 C 123.214844 163.449219 119.117188 173.554688 110.832031 181.007812 L 106.277344 185.160156 L 96.738281 193.867188 C 95.808594 194.5625 95.0625 195.421875 94.496094 196.4375 C 93.933594 197.453125 93.605469 198.539062 93.503906 199.695312 C 93.617188 200.882812 93.96875 201.992188 94.554688 203.027344 C 95.144531 204.0625 95.917969 204.929688 96.878906 205.632812 L 110.851562 218.402344 C 119.117188 225.839844 123.214844 235.945312 123.375 249.28125 L 123.375 260.40625 C 123.378906 260.703125 123.328125 260.988281 123.21875 261.265625 C 123.109375 261.539062 122.949219 261.78125 122.742188 261.992188 C 122.535156 262.203125 122.292969 262.367188 122.019531 262.480469 C 121.746094 262.59375 121.464844 262.652344 121.167969 262.652344 Z M 121.167969 262.652344 " fill-opacity="1" fill-rule="nonzero"/><g clip-path="url(#21857bb802)"><path fill="#013b55" d="M 130.300781 138.878906 L 32.175781 138.878906 C 31.882812 138.878906 31.601562 138.824219 31.332031 138.710938 C 31.058594 138.597656 30.820312 138.441406 30.613281 138.234375 C 30.40625 138.027344 30.246094 137.785156 30.136719 137.515625 C 30.023438 137.246094 29.96875 136.964844 29.96875 136.671875 L 29.96875 127.117188 C 29.96875 126.824219 30.023438 126.539062 30.136719 126.269531 C 30.246094 126 30.40625 125.761719 30.613281 125.554688 C 30.820312 125.347656 31.058594 125.1875 31.332031 125.074219 C 31.601562 124.964844 31.882812 124.90625 32.175781 124.90625 L 130.300781 124.90625 C 130.597656 124.898438 130.882812 124.949219 131.160156 125.058594 C 131.4375 125.167969 131.683594 125.328125 131.894531 125.535156 C 132.109375 125.742188 132.273438 125.984375 132.386719 126.257812 C 132.503906 126.53125 132.5625 126.816406 132.558594 127.117188 L 132.558594 136.671875 C 132.5625 136.96875 132.503906 137.253906 132.386719 137.527344 C 132.273438 137.804688 132.109375 138.042969 131.894531 138.25 C 131.683594 138.460938 131.4375 138.617188 131.160156 138.726562 C 130.882812 138.835938 130.597656 138.886719 130.300781 138.878906 Z M 130.300781 138.878906 " fill-opacity="1" fill-rule="nonzero"/></g><g clip-path="url(#56b17333c2)"><path fill="#013b55" d="M 130.300781 273.074219 L 32.175781 273.074219 C 31.882812 273.074219 31.601562 273.015625 31.332031 272.90625 C 31.058594 272.792969 30.820312 272.632812 30.613281 272.425781 C 30.40625 272.21875 30.246094 271.980469 30.136719 271.710938 C 30.023438 271.441406 29.96875 271.15625 29.96875 270.863281 L 29.96875 261.363281 C 29.96875 261.070312 30.023438 260.789062 30.136719 260.515625 C 30.246094 260.246094 30.40625 260.007812 30.613281 259.800781 C 30.820312 259.59375 31.058594 259.433594 31.332031 259.320312 C 31.601562 259.210938 31.882812 259.152344 32.175781 259.152344 L 130.300781 259.152344 C 130.597656 259.148438 130.882812 259.199219 131.160156 259.304688 C 131.4375 259.414062 131.683594 259.574219 131.894531 259.78125 C 132.109375 259.988281 132.273438 260.230469 132.386719 260.503906 C 132.503906 260.777344 132.5625 261.066406 132.558594 261.363281 L 132.558594 270.917969 C 132.554688 271.210938 132.492188 271.492188 132.371094 271.757812 C 132.253906 272.027344 132.089844 272.261719 131.875 272.464844 C 131.664062 272.667969 131.421875 272.820312 131.148438 272.925781 C 130.875 273.03125 130.59375 273.082031 130.300781 273.074219 Z M 130.300781 273.074219 " fill-opacity="1" fill-rule="nonzero"/></g><path fill="#f07b0a" d="M 81.335938 199.925781 C 80.898438 199.949219 80.472656 199.894531 80.054688 199.757812 C 79.640625 199.621094 79.261719 199.414062 78.925781 199.140625 C 78.585938 198.863281 78.304688 198.539062 78.089844 198.15625 C 77.871094 197.777344 77.726562 197.375 77.660156 196.941406 C 77.472656 194.722656 76.648438 192.773438 75.1875 191.09375 C 75.011719 190.933594 55.757812 172.582031 54.945312 171.664062 C 54.835938 171.535156 54.742188 171.394531 54.664062 171.242188 C 54.585938 171.09375 54.527344 170.9375 54.484375 170.769531 C 54.445312 170.605469 54.421875 170.441406 54.421875 170.269531 C 54.417969 170.101562 54.433594 169.933594 54.46875 169.765625 C 54.503906 169.601562 54.558594 169.441406 54.632812 169.289062 C 54.703125 169.136719 54.792969 168.992188 54.898438 168.859375 C 55.003906 168.726562 55.125 168.609375 55.257812 168.503906 C 55.390625 168.398438 55.535156 168.308594 55.6875 168.238281 C 57.71875 167.257812 59.828125 166.480469 62.007812 165.902344 C 64.191406 165.328125 66.40625 164.964844 68.65625 164.8125 C 70.910156 164.660156 73.15625 164.726562 75.394531 165.003906 C 77.632812 165.28125 79.824219 165.773438 81.972656 166.472656 C 95.484375 170.816406 98.75 169.15625 107.460938 164.703125 C 107.890625 164.472656 108.351562 164.398438 108.832031 164.480469 C 109.316406 164.566406 109.722656 164.785156 110.054688 165.144531 C 110.382812 165.503906 110.570312 165.921875 110.617188 166.402344 C 110.667969 166.878906 110.566406 167.328125 110.320312 167.742188 C 108.871094 170.28125 107.058594 172.523438 104.882812 174.472656 C 102.992188 176.238281 96.050781 182.773438 91.96875 186.730469 C 90.203125 188.339844 89.054688 189.523438 88.753906 189.789062 C 87.679688 190.703125 86.808594 191.785156 86.136719 193.027344 C 85.46875 194.269531 85.042969 195.59375 84.867188 196.996094 C 84.828125 197.421875 84.710938 197.828125 84.511719 198.210938 C 84.308594 198.59375 84.042969 198.921875 83.710938 199.195312 C 83.378906 199.472656 83.007812 199.671875 82.597656 199.800781 C 82.183594 199.925781 81.765625 199.96875 81.335938 199.925781 Z M 81.335938 199.925781 " fill-opacity="1" fill-rule="nonzero"/><path fill="#f07b0a" d="M 109.4375 254.296875 L 53.074219 254.296875 C 52.78125 254.296875 52.496094 254.242188 52.226562 254.128906 C 51.957031 254.015625 51.71875 253.855469 51.511719 253.648438 C 51.304688 253.441406 51.144531 253.203125 51.03125 252.933594 C 50.921875 252.664062 50.863281 252.382812 50.863281 252.089844 C 50.886719 251.109375 50.957031 250.128906 51.078125 249.15625 C 51.195312 248.183594 51.359375 247.21875 51.570312 246.257812 C 51.785156 245.300781 52.039062 244.355469 52.34375 243.421875 C 52.648438 242.492188 52.996094 241.574219 53.386719 240.675781 C 53.777344 239.777344 54.210938 238.898438 54.6875 238.039062 C 55.164062 237.183594 55.683594 236.351562 56.238281 235.542969 C 56.796875 234.734375 57.390625 233.957031 58.023438 233.207031 C 58.65625 232.457031 59.324219 231.742188 60.023438 231.054688 C 60.726562 230.371094 61.460938 229.71875 62.226562 229.105469 C 62.988281 228.492188 63.78125 227.914062 64.601562 227.378906 C 65.421875 226.839844 66.269531 226.34375 67.136719 225.886719 C 68.003906 225.433594 68.894531 225.019531 69.800781 224.648438 C 70.710938 224.28125 71.636719 223.953125 72.574219 223.675781 C 73.515625 223.394531 74.464844 223.160156 75.429688 222.96875 C 76.390625 222.78125 77.359375 222.640625 78.335938 222.546875 C 79.3125 222.449219 80.292969 222.402344 81.273438 222.402344 C 82.253906 222.402344 83.234375 222.449219 84.207031 222.546875 C 85.183594 222.640625 86.15625 222.78125 87.117188 222.96875 C 88.078125 223.160156 89.03125 223.394531 89.972656 223.675781 C 90.910156 223.953125 91.835938 224.28125 92.742188 224.648438 C 93.652344 225.019531 94.539062 225.433594 95.410156 225.886719 C 96.277344 226.34375 97.121094 226.839844 97.941406 227.378906 C 98.761719 227.914062 99.554688 228.492188 100.320312 229.105469 C 101.085938 229.71875 101.820312 230.371094 102.519531 231.054688 C 103.222656 231.742188 103.890625 232.457031 104.523438 233.207031 C 105.15625 233.957031 105.75 234.734375 106.308594 235.542969 C 106.863281 236.351562 107.382812 237.183594 107.859375 238.039062 C 108.335938 238.898438 108.769531 239.777344 109.160156 240.675781 C 109.550781 241.574219 109.898438 242.492188 110.203125 243.421875 C 110.503906 244.355469 110.761719 245.300781 110.972656 246.257812 C 111.1875 247.21875 111.351562 248.183594 111.46875 249.15625 C 111.585938 250.128906 111.65625 251.109375 111.683594 252.089844 C 111.683594 252.382812 111.625 252.667969 111.511719 252.941406 C 111.394531 253.214844 111.234375 253.453125 111.023438 253.664062 C 110.8125 253.871094 110.570312 254.027344 110.292969 254.136719 C 110.019531 254.25 109.734375 254.300781 109.4375 254.296875 Z M 109.4375 254.296875 " fill-opacity="1" fill-rule="nonzero"/><g clip-path="url(#a30d83d907)"><g clip-path="url(#8e9b94155d)"><path fill="#013b55" d="M 11.363281 101.804688 L 151.160156 101.804688 L 151.160156 160.957031 L 11.363281 160.957031 Z M 11.363281 101.804688 " fill-opacity="1" fill-rule="nonzero"/></g></g><g fill="#f07b0a" fill-opacity="1"><g transform="translate(130.168054, 229.433902)"><g><path d="M 10.6875 -51.078125 L 1.0625 -51.078125 L 1.0625 -56.984375 L 28 -56.984375 L 28 -51.078125 L 18.640625 -51.078125 L 18.640625 0 L 10.6875 0 Z M 10.6875 -51.078125 "/></g></g></g><g fill="#f07b0a" fill-opacity="1"><g transform="translate(159.223964, 229.433902)"><g><path d="M 4.296875 -54.59375 L 11.828125 -54.59375 L 11.828125 -46.71875 L 4.296875 -46.71875 Z M 4.296875 -40.671875 L 11.828125 -40.671875 L 11.828125 0 L 4.296875 0 Z M 4.296875 -40.671875 "/></g></g></g><g fill="#f07b0a" fill-opacity="1"><g transform="translate(175.334864, 229.433902)"><g><path d="M 3.796875 -40.671875 L 10.765625 -40.671875 L 10.765625 -36.796875 C 12.128906 -38.296875 13.617188 -39.429688 15.234375 -40.203125 C 16.847656 -40.984375 18.546875 -41.375 20.328125 -41.375 C 23.804688 -41.375 26.015625 -39.660156 26.953125 -36.234375 C 29.765625 -39.660156 33.140625 -41.375 37.078125 -41.375 C 39.191406 -41.375 40.914062 -40.597656 42.25 -39.046875 C 43.582031 -37.503906 44.25 -35.132812 44.25 -31.9375 L 44.25 0 L 37.359375 0 L 37.359375 -31.453125 C 37.359375 -33.328125 37.050781 -34.628906 36.4375 -35.359375 C 35.832031 -36.085938 34.96875 -36.453125 33.84375 -36.453125 C 32.8125 -36.453125 31.734375 -36.15625 30.609375 -35.5625 C 29.484375 -34.976562 28.453125 -34.171875 27.515625 -33.140625 L 27.515625 0 L 20.609375 0 L 20.609375 -31.453125 C 20.609375 -33.328125 20.300781 -34.628906 19.6875 -35.359375 C 19.082031 -36.085938 18.21875 -36.453125 17.09375 -36.453125 C 16.113281 -36.453125 15.0625 -36.15625 13.9375 -35.5625 C 12.8125 -34.976562 11.753906 -34.171875 10.765625 -33.140625 L 10.765625 0 L 3.796875 0 Z M 3.796875 -40.671875 "/></g></g></g><g fill="#f07b0a" fill-opacity="1"><g transform="translate(223.175115, 229.433902)"><g><path d="M 15.0625 0.5625 C 11.914062 0.5625 9.472656 -0.0351562 7.734375 -1.234375 C 6.003906 -2.429688 4.785156 -4.203125 4.078125 -6.546875 C 3.378906 -8.890625 3.03125 -11.9375 3.03125 -15.6875 L 3.03125 -24.984375 C 3.03125 -30.609375 3.90625 -34.722656 5.65625 -37.328125 C 7.414062 -39.929688 10.550781 -41.234375 15.0625 -41.234375 C 18.34375 -41.234375 20.816406 -40.550781 22.484375 -39.1875 C 24.148438 -37.832031 25.25 -35.921875 25.78125 -33.453125 C 26.320312 -30.992188 26.59375 -27.675781 26.59375 -23.5 L 26.59375 -20.1875 L 10.546875 -20.1875 L 10.546875 -12.03125 C 10.546875 -9.539062 10.910156 -7.742188 11.640625 -6.640625 C 12.367188 -5.546875 13.53125 -5 15.125 -5 C 16.71875 -5 17.796875 -5.546875 18.359375 -6.640625 C 18.921875 -7.742188 19.203125 -9.421875 19.203125 -11.671875 L 19.203125 -14.140625 L 26.53125 -14.140625 L 26.53125 -12.59375 C 26.53125 -8.320312 25.613281 -5.0625 23.78125 -2.8125 C 21.945312 -0.5625 19.039062 0.5625 15.0625 0.5625 Z M 19.203125 -24.28125 L 19.203125 -27.9375 C 19.203125 -30.695312 18.929688 -32.675781 18.390625 -33.875 C 17.859375 -35.070312 16.722656 -35.671875 14.984375 -35.671875 C 13.765625 -35.671875 12.835938 -35.390625 12.203125 -34.828125 C 11.566406 -34.265625 11.128906 -33.335938 10.890625 -32.046875 C 10.660156 -30.753906 10.546875 -28.890625 10.546875 -26.453125 L 10.546875 -24.28125 Z M 19.203125 -24.28125 "/></g></g></g><g fill="#013b55" fill-opacity="1"><g transform="translate(252.799831, 229.433902)"><g><path d="M 4.4375 -56.984375 L 26.453125 -56.984375 L 26.453125 -51.296875 L 12.390625 -51.296875 L 12.390625 -32.296875 L 23.28125 -32.296875 L 23.28125 -26.671875 L 12.390625 -26.671875 L 12.390625 0 L 4.4375 0 Z M 4.4375 -56.984375 "/></g></g></g><g fill="#013b55" fill-opacity="1"><g transform="translate(280.307966, 229.433902)"><g><path d="M 4.5 -56.984375 L 12.03125 -56.984375 L 12.03125 0 L 4.5 0 Z M 4.5 -56.984375 "/></g></g></g><g fill="#013b55" fill-opacity="1"><g transform="translate(296.418866, 229.433902)"><g><path d="M 14.984375 0.5625 C 10.671875 0.5625 7.609375 -0.710938 5.796875 -3.265625 C 3.992188 -5.828125 3.09375 -9.546875 3.09375 -14.421875 L 3.09375 -26.25 C 3.09375 -31.125 3.992188 -34.835938 5.796875 -37.390625 C 7.609375 -39.953125 10.671875 -41.234375 14.984375 -41.234375 C 19.253906 -41.234375 22.289062 -39.953125 24.09375 -37.390625 C 25.90625 -34.835938 26.8125 -31.125 26.8125 -26.25 L 26.8125 -14.421875 C 26.8125 -9.546875 25.90625 -5.828125 24.09375 -3.265625 C 22.289062 -0.710938 19.253906 0.5625 14.984375 0.5625 Z M 14.984375 -5 C 16.347656 -5 17.332031 -5.394531 17.9375 -6.1875 C 18.550781 -6.988281 18.925781 -7.972656 19.0625 -9.140625 C 19.207031 -10.316406 19.28125 -11.914062 19.28125 -13.9375 L 19.28125 -26.671875 C 19.28125 -28.679688 19.207031 -30.285156 19.0625 -31.484375 C 18.925781 -32.679688 18.550781 -33.675781 17.9375 -34.46875 C 17.332031 -35.269531 16.347656 -35.671875 14.984375 -35.671875 C 13.628906 -35.671875 12.632812 -35.269531 12 -34.46875 C 11.363281 -33.675781 10.972656 -32.679688 10.828125 -31.484375 C 10.691406 -30.285156 10.625 -28.679688 10.625 -26.671875 L 10.625 -13.9375 C 10.625 -11.914062 10.691406 -10.316406 10.828125 -9.140625 C 10.972656 -7.972656 11.363281 -6.988281 12 -6.1875 C 12.632812 -5.394531 13.628906 -5 14.984375 -5 Z M 14.984375 -5 "/></g></g></g><g fill="#013b55" fill-opacity="1"><g transform="translate(326.319013, 229.433902)"><g><path d="M 1.96875 -40.671875 L 8.15625 -40.671875 L 12.390625 -10.6875 L 17.796875 -40.671875 L 23.578125 -40.671875 L 28.984375 -10.828125 L 33.203125 -40.671875 L 39.40625 -40.671875 L 32.640625 0 L 26.3125 0 L 20.75 -28.703125 L 15.265625 0 L 8.515625 0 Z M 1.96875 -40.671875 "/></g></g></g></svg>