<svg xmlns="http://www.w3.org/2000/svg" version="1.1" xmlns:xlink="http://www.w3.org/1999/xlink" xmlns:svgjs="http://svgjs.dev/svgjs" width="1000" height="1000"><style>
    #light-icon {
      display: inline;
    }
    #dark-icon {
      display: none;
    }

    @media (prefers-color-scheme: dark) {
      #light-icon {
        display: none;
      }
      #dark-icon {
        display: inline;
      }
    }
  </style><g id="light-icon"><svg xmlns="http://www.w3.org/2000/svg" version="1.1" xmlns:xlink="http://www.w3.org/1999/xlink" xmlns:svgjs="http://svgjs.dev/svgjs" width="1000" height="1000"><g><g transform="matrix(2,0,0,2,0,0)"><svg xmlns="http://www.w3.org/2000/svg" version="1.1" xmlns:xlink="http://www.w3.org/1999/xlink" xmlns:svgjs="http://svgjs.dev/svgjs" width="500" height="500"><svg xmlns="http://www.w3.org/2000/svg" xmlns:xlink="http://www.w3.org/1999/xlink" width="500" zoomAndPan="magnify" viewBox="0 0 375 374.999991" height="500" preserveAspectRatio="xMidYMid meet" version="1.0"><defs><clipPath id="6fd8c88f82"><path d="M 53.582031 76.007812 L 94.152344 76.007812 L 94.152344 118 L 53.582031 118 Z M 53.582031 76.007812 " clip-rule="nonzero"></path></clipPath><clipPath id="dbde3d1415"><path d="M 65.085938 76.007812 L 87 76.007812 L 87 200.0625 L 65.085938 200.0625 Z M 65.085938 76.007812 " clip-rule="nonzero"></path></clipPath><clipPath id="4a612aafdc"><path d="M 77.402344 52.425781 L 298 52.425781 L 298 84 L 77.402344 84 Z M 77.402344 52.425781 " clip-rule="nonzero"></path></clipPath><clipPath id="3a5708f443"><path d="M 77.402344 341 L 298 341 L 298 372 L 77.402344 372 Z M 77.402344 341 " clip-rule="nonzero"></path></clipPath><clipPath id="2c1cafc043"><path d="M 37.5 3.347656 L 337.910156 3.347656 L 337.910156 130.460938 L 37.5 130.460938 Z M 37.5 3.347656 " clip-rule="nonzero"></path></clipPath><clipPath id="c005fceaa4"><path d="M 187.679688 3.347656 L 337.859375 66.902344 L 187.679688 130.460938 L 37.5 66.902344 Z M 187.679688 3.347656 " clip-rule="nonzero"></path></clipPath></defs><g clip-path="url(#6fd8c88f82)"><path fill="#f07b0a" d="M 79.15625 33.496094 L 79.152344 33.480469 M 350.917969 56.003906 L 350.96875 55.988281 L 350.867188 55.988281 L 275.746094 27.929688 L 275.707031 27.875 L 275.644531 27.890625 L 223.765625 8.515625 L 223.742188 8.503906 L 223.722656 8.460938 L 223.652344 8.472656 L 184.914062 -5.996094 L 184.929688 -6.027344 L 122.726562 17.203125 L 79.140625 33.484375 L 18.890625 55.988281 L 97.335938 85.28125 L 100.578125 86.492188 L 145.984375 103.457031 L 184.929688 118 L 229.320312 101.417969 L 229.324219 101.417969 L 269.28125 86.492188 L 279.675781 82.613281 L 350.894531 56.011719 L 350.941406 56.011719 L 350.917969 56.003906 " fill-opacity="1" fill-rule="nonzero"></path></g><g clip-path="url(#dbde3d1415)"><path fill="#f07b0a" d="M 84.273438 168.476562 L 84.226562 168.027344 L 81.488281 139.582031 L 81.367188 138.335938 L 80.050781 124.636719 L 81.160156 124.636719 L 81.160156 109.410156 C 82.683594 108.039062 83.648438 106.058594 83.648438 103.84375 C 83.648438 102.710938 83.390625 101.636719 82.941406 100.679688 C 82.207031 99.113281 80.949219 97.84375 79.394531 97.09375 L 79.394531 78.582031 L 72.78125 76.117188 L 72.78125 97.160156 C 70.339844 98.394531 68.660156 100.917969 68.660156 103.84375 C 68.660156 106.058594 69.625 108.039062 71.148438 109.410156 L 71.148438 124.636719 L 72.359375 124.636719 L 71.558594 132.839844 L 70.5625 143.035156 L 68.101562 168.167969 L 68.097656 168.253906 L 66.761719 181.882812 L 65.574219 194.070312 C 65.546875 194.332031 65.539062 194.632812 65.574219 194.898438 C 65.972656 198.246094 71.035156 200.765625 76.878906 200.539062 C 82.71875 200.3125 87.132812 197.417969 86.734375 194.070312 L 84.273438 168.476562 " fill-opacity="1" fill-rule="nonzero"></path></g><path fill="#f07b0a" d="M 192.417969 230.070312 C 192.417969 230.382812 192.386719 230.691406 192.328125 230.996094 C 192.265625 231.300781 192.175781 231.597656 192.054688 231.886719 C 191.9375 232.175781 191.789062 232.449219 191.617188 232.707031 C 191.445312 232.964844 191.246094 233.207031 191.027344 233.425781 C 190.808594 233.644531 190.566406 233.84375 190.308594 234.015625 C 190.050781 234.1875 189.777344 234.335938 189.488281 234.453125 C 189.199219 234.574219 188.902344 234.664062 188.597656 234.726562 C 188.292969 234.785156 187.984375 234.816406 187.671875 234.816406 C 187.359375 234.816406 187.050781 234.785156 186.746094 234.726562 C 186.441406 234.664062 186.144531 234.574219 185.855469 234.453125 C 185.570312 234.335938 185.296875 234.1875 185.035156 234.015625 C 184.777344 233.84375 184.539062 233.644531 184.316406 233.425781 C 184.097656 233.207031 183.902344 232.964844 183.726562 232.707031 C 183.554688 232.449219 183.40625 232.175781 183.289062 231.886719 C 183.167969 231.597656 183.078125 231.300781 183.019531 230.996094 C 182.957031 230.691406 182.925781 230.382812 182.925781 230.070312 C 182.925781 229.757812 182.957031 229.449219 183.019531 229.144531 C 183.078125 228.839844 183.167969 228.542969 183.289062 228.253906 C 183.40625 227.96875 183.554688 227.695312 183.726562 227.433594 C 183.902344 227.175781 184.097656 226.9375 184.316406 226.714844 C 184.539062 226.496094 184.777344 226.296875 185.035156 226.125 C 185.296875 225.953125 185.570312 225.804688 185.855469 225.6875 C 186.144531 225.566406 186.441406 225.476562 186.746094 225.417969 C 187.050781 225.355469 187.359375 225.324219 187.671875 225.324219 C 187.984375 225.324219 188.292969 225.355469 188.597656 225.417969 C 188.902344 225.476562 189.199219 225.566406 189.488281 225.6875 C 189.777344 225.804688 190.050781 225.953125 190.308594 226.125 C 190.566406 226.296875 190.808594 226.496094 191.027344 226.714844 C 191.246094 226.9375 191.445312 227.175781 191.617188 227.433594 C 191.789062 227.695312 191.9375 227.96875 192.054688 228.253906 C 192.175781 228.542969 192.265625 228.839844 192.328125 229.144531 C 192.386719 229.449219 192.417969 229.757812 192.417969 230.070312 Z M 192.417969 230.070312 " fill-opacity="1" fill-rule="nonzero"></path><path fill="#f07b0a" d="M 192.417969 248.824219 C 192.417969 249.132812 192.386719 249.441406 192.328125 249.75 C 192.265625 250.054688 192.175781 250.351562 192.054688 250.636719 C 191.9375 250.925781 191.789062 251.199219 191.617188 251.457031 C 191.445312 251.71875 191.246094 251.957031 191.027344 252.179688 C 190.808594 252.398438 190.566406 252.59375 190.308594 252.769531 C 190.050781 252.941406 189.777344 253.085938 189.488281 253.207031 C 189.199219 253.324219 188.902344 253.414062 188.597656 253.476562 C 188.292969 253.539062 187.984375 253.566406 187.671875 253.566406 C 187.359375 253.566406 187.050781 253.539062 186.746094 253.476562 C 186.441406 253.414062 186.144531 253.324219 185.855469 253.207031 C 185.570312 253.085938 185.296875 252.941406 185.035156 252.769531 C 184.777344 252.59375 184.539062 252.398438 184.316406 252.179688 C 184.097656 251.957031 183.902344 251.71875 183.726562 251.457031 C 183.554688 251.199219 183.40625 250.925781 183.289062 250.636719 C 183.167969 250.351562 183.078125 250.054688 183.019531 249.75 C 182.957031 249.441406 182.925781 249.132812 182.925781 248.824219 C 182.925781 248.511719 182.957031 248.203125 183.019531 247.898438 C 183.078125 247.589844 183.167969 247.292969 183.289062 247.007812 C 183.40625 246.71875 183.554688 246.445312 183.726562 246.1875 C 183.902344 245.925781 184.097656 245.6875 184.316406 245.46875 C 184.539062 245.246094 184.777344 245.050781 185.035156 244.878906 C 185.296875 244.703125 185.570312 244.558594 185.855469 244.4375 C 186.144531 244.320312 186.441406 244.230469 186.746094 244.167969 C 187.050781 244.109375 187.359375 244.078125 187.671875 244.078125 C 187.984375 244.078125 188.292969 244.109375 188.597656 244.167969 C 188.902344 244.230469 189.199219 244.320312 189.488281 244.4375 C 189.777344 244.558594 190.050781 244.703125 190.308594 244.878906 C 190.566406 245.050781 190.808594 245.246094 191.027344 245.46875 C 191.246094 245.6875 191.445312 245.925781 191.617188 246.1875 C 191.789062 246.445312 191.9375 246.71875 192.054688 247.007812 C 192.175781 247.292969 192.265625 247.589844 192.328125 247.898438 C 192.386719 248.203125 192.417969 248.511719 192.417969 248.824219 Z M 192.417969 248.824219 " fill-opacity="1" fill-rule="nonzero"></path><path fill="#013b55" d="M 101.847656 348.996094 C 101.535156 348.996094 101.226562 348.964844 100.921875 348.90625 C 100.617188 348.84375 100.320312 348.753906 100.03125 348.636719 C 99.742188 348.515625 99.46875 348.371094 99.210938 348.199219 C 98.953125 348.023438 98.710938 347.828125 98.492188 347.605469 C 98.269531 347.386719 98.074219 347.148438 97.902344 346.886719 C 97.726562 346.628906 97.582031 346.355469 97.464844 346.066406 C 97.34375 345.78125 97.253906 345.484375 97.191406 345.179688 C 97.132812 344.871094 97.101562 344.5625 97.101562 344.253906 L 97.101562 320.414062 C 97.445312 291.679688 106.289062 269.964844 124.054688 253.984375 L 154.039062 226.578125 C 155.0625 225.820312 155.996094 224.96875 156.839844 224.011719 C 157.683594 223.058594 158.417969 222.027344 159.039062 220.917969 C 159.664062 219.808594 160.167969 218.648438 160.546875 217.433594 C 160.925781 216.21875 161.175781 214.976562 161.289062 213.710938 C 161.179688 212.488281 160.945312 211.289062 160.582031 210.117188 C 160.214844 208.945312 159.734375 207.824219 159.132812 206.753906 C 158.53125 205.683594 157.820312 204.691406 157.007812 203.769531 C 156.195312 202.851562 155.292969 202.027344 154.304688 201.296875 L 135.328125 183.988281 L 123.9375 173.585938 C 106.175781 157.605469 97.367188 135.894531 96.988281 107.234375 L 96.988281 82.75 C 96.988281 82.441406 97.019531 82.132812 97.078125 81.824219 C 97.140625 81.519531 97.230469 81.222656 97.347656 80.933594 C 97.46875 80.648438 97.613281 80.375 97.789062 80.113281 C 97.960938 79.855469 98.15625 79.617188 98.378906 79.394531 C 98.597656 79.175781 98.835938 78.980469 99.097656 78.804688 C 99.355469 78.632812 99.628906 78.488281 99.917969 78.367188 C 100.203125 78.25 100.5 78.160156 100.808594 78.097656 C 101.113281 78.035156 101.421875 78.007812 101.734375 78.007812 C 102.042969 78.007812 102.351562 78.035156 102.660156 78.097656 C 102.964844 78.160156 103.261719 78.25 103.546875 78.367188 C 103.835938 78.488281 104.109375 78.632812 104.367188 78.804688 C 104.628906 78.980469 104.867188 79.175781 105.089844 79.394531 C 105.308594 79.617188 105.503906 79.855469 105.679688 80.113281 C 105.851562 80.375 105.996094 80.648438 106.117188 80.933594 C 106.234375 81.222656 106.324219 81.519531 106.386719 81.824219 C 106.449219 82.132812 106.476562 82.441406 106.476562 82.75 L 106.476562 107.082031 C 106.820312 133.238281 114.375 152.140625 130.277344 166.488281 L 141.667969 176.890625 L 160.644531 194.199219 C 162.140625 195.355469 163.492188 196.660156 164.707031 198.113281 C 165.917969 199.566406 166.957031 201.128906 167.828125 202.808594 C 168.703125 204.484375 169.382812 206.238281 169.875 208.0625 C 170.367188 209.886719 170.65625 211.746094 170.742188 213.632812 C 170.636719 215.574219 170.328125 217.476562 169.816406 219.347656 C 169.300781 221.21875 168.59375 223.015625 167.691406 224.734375 C 166.792969 226.453125 165.71875 228.058594 164.472656 229.546875 C 163.226562 231.035156 161.835938 232.375 160.304688 233.5625 L 130.316406 260.933594 C 114.375 275.28125 106.820312 294.183594 106.476562 320.375 L 106.476562 344.175781 C 106.484375 344.484375 106.457031 344.792969 106.402344 345.097656 C 106.347656 345.402344 106.261719 345.699219 106.148438 345.988281 C 106.035156 346.277344 105.894531 346.554688 105.730469 346.8125 C 105.5625 347.074219 105.371094 347.316406 105.15625 347.539062 C 104.941406 347.765625 104.707031 347.964844 104.453125 348.140625 C 104.199219 348.320312 103.929688 348.472656 103.644531 348.597656 C 103.363281 348.722656 103.066406 348.816406 102.765625 348.886719 C 102.464844 348.953125 102.15625 348.988281 101.847656 348.996094 Z M 101.847656 348.996094 " fill-opacity="1" fill-rule="nonzero"></path><path fill="#013b55" d="M 273.460938 348.996094 C 273.148438 348.996094 272.839844 348.964844 272.535156 348.90625 C 272.230469 348.84375 271.933594 348.753906 271.644531 348.636719 C 271.355469 348.515625 271.082031 348.371094 270.824219 348.199219 C 270.566406 348.023438 270.324219 347.828125 270.105469 347.605469 C 269.886719 347.386719 269.6875 347.148438 269.515625 346.886719 C 269.34375 346.628906 269.195312 346.355469 269.078125 346.066406 C 268.957031 345.78125 268.867188 345.484375 268.808594 345.179688 C 268.746094 344.871094 268.714844 344.5625 268.714844 344.253906 L 268.714844 320.414062 C 268.410156 294.261719 260.859375 275.355469 244.914062 261.007812 L 214.890625 233.601562 C 213.367188 232.421875 211.988281 231.09375 210.75 229.617188 C 209.511719 228.140625 208.449219 226.546875 207.554688 224.839844 C 206.660156 223.136719 205.957031 221.351562 205.445312 219.496094 C 204.9375 217.636719 204.628906 215.746094 204.527344 213.824219 C 204.617188 211.945312 204.90625 210.097656 205.386719 208.28125 C 205.871094 206.464844 206.539062 204.71875 207.394531 203.042969 C 208.246094 201.367188 209.269531 199.800781 210.453125 198.34375 C 211.640625 196.882812 212.96875 195.566406 214.433594 194.390625 L 235.046875 175.410156 C 238.347656 172.371094 241.613281 169.375 244.914062 166.414062 C 260.859375 152.066406 268.410156 133.160156 268.714844 106.96875 L 268.714844 82.75 C 268.714844 82.441406 268.746094 82.132812 268.804688 81.824219 C 268.867188 81.519531 268.957031 81.222656 269.078125 80.933594 C 269.195312 80.648438 269.34375 80.375 269.515625 80.113281 C 269.6875 79.855469 269.886719 79.617188 270.105469 79.394531 C 270.324219 79.175781 270.566406 78.980469 270.824219 78.804688 C 271.082031 78.632812 271.355469 78.488281 271.644531 78.367188 C 271.933594 78.25 272.230469 78.160156 272.535156 78.097656 C 272.839844 78.035156 273.148438 78.007812 273.460938 78.007812 C 273.773438 78.007812 274.082031 78.035156 274.386719 78.097656 C 274.691406 78.160156 274.988281 78.25 275.277344 78.367188 C 275.5625 78.488281 275.835938 78.632812 276.097656 78.804688 C 276.355469 78.980469 276.59375 79.175781 276.816406 79.394531 C 277.035156 79.617188 277.234375 79.855469 277.40625 80.113281 C 277.578125 80.375 277.726562 80.648438 277.84375 80.933594 C 277.964844 81.222656 278.054688 81.519531 278.113281 81.824219 C 278.175781 82.132812 278.207031 82.441406 278.207031 82.75 L 278.207031 107.082031 C 277.863281 135.816406 269.058594 157.53125 251.253906 173.550781 L 241.460938 182.46875 L 220.960938 201.183594 C 219.976562 201.925781 219.074219 202.757812 218.265625 203.6875 C 217.453125 204.621094 216.746094 205.625 216.148438 206.703125 C 215.550781 207.785156 215.070312 208.914062 214.710938 210.09375 C 214.351562 211.273438 214.121094 212.480469 214.015625 213.710938 C 214.136719 214.96875 214.382812 216.203125 214.765625 217.40625 C 215.144531 218.613281 215.648438 219.765625 216.273438 220.867188 C 216.898438 221.964844 217.632812 222.988281 218.472656 223.929688 C 219.3125 224.875 220.246094 225.71875 221.265625 226.464844 L 251.292969 253.910156 C 269.058594 269.890625 277.863281 291.601562 278.207031 320.261719 L 278.207031 344.175781 C 278.210938 344.492188 278.183594 344.804688 278.128906 345.113281 C 278.070312 345.421875 277.984375 345.722656 277.867188 346.015625 C 277.75 346.308594 277.605469 346.585938 277.433594 346.847656 C 277.261719 347.113281 277.0625 347.355469 276.84375 347.582031 C 276.621094 347.804688 276.382812 348.003906 276.121094 348.183594 C 275.859375 348.359375 275.585938 348.507812 275.292969 348.628906 C 275.003906 348.75 274.703125 348.84375 274.394531 348.902344 C 274.085938 348.964844 273.773438 348.996094 273.460938 348.996094 Z M 273.460938 348.996094 " fill-opacity="1" fill-rule="nonzero"></path><g clip-path="url(#4a612aafdc)"><path fill="#013b55" d="M 293.085938 83.015625 L 82.222656 83.015625 C 81.910156 83.015625 81.601562 82.988281 81.296875 82.925781 C 80.992188 82.863281 80.695312 82.773438 80.40625 82.65625 C 80.117188 82.535156 79.84375 82.390625 79.585938 82.21875 C 79.328125 82.042969 79.085938 81.847656 78.867188 81.628906 C 78.644531 81.40625 78.449219 81.167969 78.277344 80.90625 C 78.105469 80.648438 77.957031 80.375 77.839844 80.085938 C 77.71875 79.800781 77.628906 79.503906 77.566406 79.199219 C 77.507812 78.890625 77.476562 78.582031 77.476562 78.273438 L 77.476562 57.734375 C 77.476562 57.425781 77.507812 57.117188 77.566406 56.808594 C 77.628906 56.503906 77.71875 56.207031 77.839844 55.921875 C 77.957031 55.632812 78.105469 55.359375 78.277344 55.101562 C 78.449219 54.839844 78.644531 54.601562 78.867188 54.382812 C 79.085938 54.160156 79.328125 53.964844 79.585938 53.789062 C 79.84375 53.617188 80.117188 53.472656 80.40625 53.351562 C 80.695312 53.234375 80.992188 53.144531 81.296875 53.082031 C 81.601562 53.023438 81.910156 52.992188 82.222656 52.992188 L 293.085938 52.992188 C 293.402344 52.984375 293.714844 53.007812 294.027344 53.0625 C 294.339844 53.117188 294.640625 53.203125 294.9375 53.320312 C 295.230469 53.433594 295.511719 53.578125 295.777344 53.75 C 296.042969 53.921875 296.289062 54.117188 296.515625 54.339844 C 296.742188 54.5625 296.941406 54.800781 297.121094 55.0625 C 297.300781 55.324219 297.449219 55.601562 297.574219 55.894531 C 297.695312 56.183594 297.789062 56.484375 297.851562 56.796875 C 297.914062 57.105469 297.945312 57.417969 297.945312 57.734375 L 297.945312 78.273438 C 297.945312 78.589844 297.914062 78.902344 297.851562 79.210938 C 297.789062 79.523438 297.695312 79.824219 297.574219 80.113281 C 297.449219 80.40625 297.300781 80.683594 297.121094 80.945312 C 296.941406 81.207031 296.742188 81.445312 296.515625 81.667969 C 296.289062 81.890625 296.042969 82.085938 295.777344 82.257812 C 295.511719 82.429688 295.230469 82.574219 294.9375 82.6875 C 294.640625 82.804688 294.339844 82.890625 294.027344 82.945312 C 293.714844 83 293.402344 83.023438 293.085938 83.015625 Z M 293.085938 83.015625 " fill-opacity="1" fill-rule="nonzero"></path></g><g clip-path="url(#3a5708f443)"><path fill="#013b55" d="M 293.085938 371.394531 L 82.222656 371.394531 C 81.910156 371.394531 81.601562 371.363281 81.296875 371.300781 C 80.992188 371.242188 80.695312 371.152344 80.40625 371.03125 C 80.117188 370.914062 79.84375 370.765625 79.585938 370.59375 C 79.328125 370.421875 79.085938 370.222656 78.867188 370.003906 C 78.644531 369.78125 78.449219 369.542969 78.277344 369.285156 C 78.105469 369.023438 77.957031 368.75 77.839844 368.464844 C 77.71875 368.175781 77.628906 367.878906 77.566406 367.574219 C 77.507812 367.269531 77.476562 366.960938 77.476562 366.648438 L 77.476562 346.226562 C 77.476562 345.914062 77.507812 345.605469 77.566406 345.300781 C 77.628906 344.996094 77.71875 344.699219 77.839844 344.410156 C 77.957031 344.121094 78.105469 343.847656 78.277344 343.589844 C 78.449219 343.332031 78.644531 343.089844 78.867188 342.871094 C 79.085938 342.652344 79.328125 342.453125 79.585938 342.28125 C 79.84375 342.109375 80.117188 341.960938 80.40625 341.84375 C 80.695312 341.722656 80.992188 341.632812 81.296875 341.574219 C 81.601562 341.511719 81.910156 341.480469 82.222656 341.480469 L 293.085938 341.480469 C 293.402344 341.472656 293.714844 341.496094 294.027344 341.550781 C 294.339844 341.609375 294.640625 341.691406 294.9375 341.808594 C 295.230469 341.925781 295.511719 342.070312 295.777344 342.242188 C 296.042969 342.414062 296.289062 342.609375 296.515625 342.828125 C 296.742188 343.050781 296.941406 343.292969 297.121094 343.554688 C 297.300781 343.816406 297.449219 344.09375 297.574219 344.382812 C 297.695312 344.675781 297.789062 344.976562 297.851562 345.285156 C 297.914062 345.597656 297.945312 345.910156 297.945312 346.226562 L 297.945312 366.761719 C 297.9375 367.074219 297.898438 367.382812 297.832031 367.6875 C 297.761719 367.988281 297.664062 368.285156 297.539062 368.570312 C 297.414062 368.855469 297.261719 369.125 297.082031 369.378906 C 296.902344 369.632812 296.699219 369.871094 296.472656 370.085938 C 296.25 370.300781 296.003906 370.488281 295.742188 370.65625 C 295.476562 370.824219 295.199219 370.964844 294.910156 371.074219 C 294.621094 371.1875 294.320312 371.269531 294.011719 371.324219 C 293.707031 371.378906 293.398438 371.402344 293.085938 371.394531 Z M 293.085938 371.394531 " fill-opacity="1" fill-rule="nonzero"></path></g><path fill="#f07b0a" d="M 187.863281 214.203125 C 187.398438 214.226562 186.933594 214.210938 186.472656 214.148438 C 186.011719 214.085938 185.558594 213.984375 185.113281 213.839844 C 184.671875 213.695312 184.246094 213.511719 183.835938 213.289062 C 183.429688 213.066406 183.042969 212.808594 182.679688 212.515625 C 182.320312 212.222656 181.988281 211.898438 181.6875 211.542969 C 181.382812 211.1875 181.117188 210.808594 180.886719 210.402344 C 180.652344 210 180.460938 209.578125 180.304688 209.136719 C 180.152344 208.699219 180.039062 208.25 179.96875 207.789062 C 179.769531 205.464844 179.21875 203.230469 178.3125 201.082031 C 177.402344 198.9375 176.183594 196.984375 174.652344 195.222656 C 174.273438 194.882812 132.898438 155.441406 131.152344 153.46875 C 130.914062 153.191406 130.714844 152.890625 130.546875 152.566406 C 130.382812 152.242188 130.253906 151.902344 130.164062 151.550781 C 130.078125 151.195312 130.03125 150.839844 130.023438 150.472656 C 130.019531 150.109375 130.054688 149.75 130.128906 149.394531 C 130.207031 149.039062 130.324219 148.695312 130.480469 148.367188 C 130.636719 148.035156 130.828125 147.730469 131.054688 147.445312 C 131.28125 147.160156 131.535156 146.902344 131.824219 146.675781 C 132.109375 146.449219 132.417969 146.261719 132.746094 146.105469 C 137.113281 144 141.640625 142.328125 146.332031 141.089844 C 151.019531 139.851562 155.78125 139.070312 160.621094 138.746094 C 165.457031 138.421875 170.285156 138.558594 175.09375 139.15625 C 179.90625 139.757812 184.617188 140.808594 189.230469 142.308594 C 218.269531 151.648438 225.289062 148.078125 244.003906 138.511719 C 244.457031 138.273438 244.933594 138.113281 245.441406 138.03125 C 245.945312 137.949219 246.449219 137.949219 246.957031 138.035156 C 247.460938 138.121094 247.9375 138.285156 248.386719 138.53125 C 248.839844 138.777344 249.238281 139.085938 249.585938 139.460938 C 249.925781 139.835938 250.199219 140.253906 250.40625 140.714844 C 250.609375 141.175781 250.738281 141.65625 250.789062 142.160156 C 250.84375 142.660156 250.8125 143.160156 250.703125 143.652344 C 250.59375 144.144531 250.410156 144.609375 250.152344 145.042969 C 247.039062 150.496094 243.144531 155.316406 238.460938 159.503906 C 234.398438 163.300781 219.480469 177.34375 210.714844 185.847656 C 206.917969 189.300781 204.449219 191.847656 203.804688 192.414062 C 201.496094 194.386719 199.625 196.707031 198.183594 199.378906 C 196.742188 202.050781 195.832031 204.890625 195.453125 207.902344 C 195.414062 208.359375 195.328125 208.808594 195.199219 209.25 C 195.070312 209.6875 194.898438 210.109375 194.6875 210.515625 C 194.472656 210.921875 194.222656 211.304688 193.933594 211.660156 C 193.644531 212.019531 193.324219 212.34375 192.972656 212.636719 C 192.617188 212.929688 192.238281 213.183594 191.835938 213.402344 C 191.433594 213.621094 191.011719 213.796875 190.574219 213.929688 C 190.136719 214.066406 189.6875 214.15625 189.230469 214.203125 C 188.773438 214.246094 188.320312 214.25 187.863281 214.203125 Z M 187.863281 214.203125 " fill-opacity="1" fill-rule="nonzero"></path><path fill="#f07b0a" d="M 248.253906 331.042969 L 127.128906 331.042969 C 126.816406 331.042969 126.507812 331.011719 126.203125 330.953125 C 125.894531 330.890625 125.601562 330.800781 125.3125 330.679688 C 125.023438 330.5625 124.75 330.414062 124.492188 330.242188 C 124.234375 330.070312 123.992188 329.871094 123.773438 329.652344 C 123.550781 329.433594 123.355469 329.191406 123.183594 328.933594 C 123.007812 328.675781 122.863281 328.402344 122.742188 328.113281 C 122.625 327.824219 122.535156 327.527344 122.472656 327.222656 C 122.414062 326.917969 122.382812 326.609375 122.382812 326.296875 C 122.433594 324.191406 122.585938 322.089844 122.839844 319.996094 C 123.09375 317.90625 123.449219 315.828125 123.902344 313.769531 C 124.359375 311.714844 124.910156 309.679688 125.5625 307.675781 C 126.214844 305.671875 126.960938 303.703125 127.800781 301.769531 C 128.644531 299.839844 129.574219 297.949219 130.601562 296.109375 C 131.625 294.265625 132.734375 292.476562 133.933594 290.742188 C 135.128906 289.007812 136.410156 287.335938 137.769531 285.722656 C 139.125 284.113281 140.5625 282.570312 142.070312 281.097656 C 143.578125 279.625 145.152344 278.230469 146.796875 276.910156 C 148.441406 275.589844 150.144531 274.351562 151.90625 273.195312 C 153.671875 272.042969 155.484375 270.972656 157.351562 269.996094 C 159.21875 269.015625 161.128906 268.128906 163.078125 267.332031 C 165.03125 266.539062 167.019531 265.839844 169.039062 265.234375 C 171.058594 264.632812 173.101562 264.128906 175.171875 263.722656 C 177.238281 263.320312 179.324219 263.015625 181.421875 262.8125 C 183.519531 262.609375 185.621094 262.507812 187.730469 262.507812 C 189.835938 262.507812 191.941406 262.609375 194.039062 262.8125 C 196.136719 263.015625 198.21875 263.320312 200.289062 263.722656 C 202.355469 264.128906 204.402344 264.632812 206.421875 265.234375 C 208.441406 265.839844 210.425781 266.539062 212.378906 267.332031 C 214.332031 268.128906 216.242188 269.015625 218.109375 269.996094 C 219.972656 270.972656 221.789062 272.042969 223.550781 273.195312 C 225.316406 274.351562 227.019531 275.589844 228.664062 276.910156 C 230.304688 278.230469 231.882812 279.625 233.390625 281.097656 C 234.898438 282.570312 236.332031 284.113281 237.691406 285.722656 C 239.050781 287.335938 240.328125 289.007812 241.527344 290.742188 C 242.722656 292.476562 243.835938 294.265625 244.859375 296.109375 C 245.882812 297.949219 246.816406 299.839844 247.65625 301.769531 C 248.5 303.703125 249.246094 305.671875 249.898438 307.675781 C 250.546875 309.679688 251.101562 311.714844 251.554688 313.769531 C 252.011719 315.828125 252.367188 317.90625 252.621094 319.996094 C 252.875 322.089844 253.027344 324.191406 253.078125 326.296875 C 253.078125 326.613281 253.046875 326.925781 252.984375 327.234375 C 252.921875 327.542969 252.828125 327.839844 252.707031 328.132812 C 252.585938 328.421875 252.4375 328.695312 252.261719 328.957031 C 252.085938 329.21875 251.882812 329.457031 251.660156 329.679688 C 251.433594 329.902344 251.191406 330.097656 250.929688 330.269531 C 250.664062 330.441406 250.386719 330.585938 250.09375 330.703125 C 249.800781 330.820312 249.5 330.90625 249.191406 330.964844 C 248.882812 331.019531 248.570312 331.046875 248.253906 331.042969 Z M 248.253906 331.042969 " fill-opacity="1" fill-rule="nonzero"></path><g clip-path="url(#2c1cafc043)"><g clip-path="url(#c005fceaa4)"><path fill="#013b55" d="M 37.5 3.347656 L 337.910156 3.347656 L 337.910156 130.460938 L 37.5 130.460938 Z M 37.5 3.347656 " fill-opacity="1" fill-rule="nonzero"></path></g></g></svg></svg></g></g></svg></g><g id="dark-icon"><svg xmlns="http://www.w3.org/2000/svg" version="1.1" xmlns:xlink="http://www.w3.org/1999/xlink" xmlns:svgjs="http://svgjs.dev/svgjs" width="1000" height="1000"><g clip-path="url(#SvgjsClipPath1247)"><rect width="1000" height="1000" fill="#ffffff"></rect><g transform="matrix(1.4,0,0,1.4,150,150)"><svg xmlns="http://www.w3.org/2000/svg" version="1.1" xmlns:xlink="http://www.w3.org/1999/xlink" xmlns:svgjs="http://svgjs.dev/svgjs" width="500" height="500"><svg xmlns="http://www.w3.org/2000/svg" xmlns:xlink="http://www.w3.org/1999/xlink" width="500" zoomAndPan="magnify" viewBox="0 0 375 374.999991" height="500" preserveAspectRatio="xMidYMid meet" version="1.0"><defs><clipPath id="6fd8c88f82"><path d="M 53.582031 76.007812 L 94.152344 76.007812 L 94.152344 118 L 53.582031 118 Z M 53.582031 76.007812 " clip-rule="nonzero"></path></clipPath><clipPath id="dbde3d1415"><path d="M 65.085938 76.007812 L 87 76.007812 L 87 200.0625 L 65.085938 200.0625 Z M 65.085938 76.007812 " clip-rule="nonzero"></path></clipPath><clipPath id="4a612aafdc"><path d="M 77.402344 52.425781 L 298 52.425781 L 298 84 L 77.402344 84 Z M 77.402344 52.425781 " clip-rule="nonzero"></path></clipPath><clipPath id="3a5708f443"><path d="M 77.402344 341 L 298 341 L 298 372 L 77.402344 372 Z M 77.402344 341 " clip-rule="nonzero"></path></clipPath><clipPath id="2c1cafc043"><path d="M 37.5 3.347656 L 337.910156 3.347656 L 337.910156 130.460938 L 37.5 130.460938 Z M 37.5 3.347656 " clip-rule="nonzero"></path></clipPath><clipPath id="c005fceaa4"><path d="M 187.679688 3.347656 L 337.859375 66.902344 L 187.679688 130.460938 L 37.5 66.902344 Z M 187.679688 3.347656 " clip-rule="nonzero"></path></clipPath><clipPath id="SvgjsClipPath1247"><rect width="1000" height="1000" x="0" y="0" rx="500" ry="500"></rect></clipPath></defs><g clip-path="url(#6fd8c88f82)"><path fill="#f07b0a" d="M 79.15625 33.496094 L 79.152344 33.480469 M 350.917969 56.003906 L 350.96875 55.988281 L 350.867188 55.988281 L 275.746094 27.929688 L 275.707031 27.875 L 275.644531 27.890625 L 223.765625 8.515625 L 223.742188 8.503906 L 223.722656 8.460938 L 223.652344 8.472656 L 184.914062 -5.996094 L 184.929688 -6.027344 L 122.726562 17.203125 L 79.140625 33.484375 L 18.890625 55.988281 L 97.335938 85.28125 L 100.578125 86.492188 L 145.984375 103.457031 L 184.929688 118 L 229.320312 101.417969 L 229.324219 101.417969 L 269.28125 86.492188 L 279.675781 82.613281 L 350.894531 56.011719 L 350.941406 56.011719 L 350.917969 56.003906 " fill-opacity="1" fill-rule="nonzero"></path></g><g clip-path="url(#dbde3d1415)"><path fill="#f07b0a" d="M 84.273438 168.476562 L 84.226562 168.027344 L 81.488281 139.582031 L 81.367188 138.335938 L 80.050781 124.636719 L 81.160156 124.636719 L 81.160156 109.410156 C 82.683594 108.039062 83.648438 106.058594 83.648438 103.84375 C 83.648438 102.710938 83.390625 101.636719 82.941406 100.679688 C 82.207031 99.113281 80.949219 97.84375 79.394531 97.09375 L 79.394531 78.582031 L 72.78125 76.117188 L 72.78125 97.160156 C 70.339844 98.394531 68.660156 100.917969 68.660156 103.84375 C 68.660156 106.058594 69.625 108.039062 71.148438 109.410156 L 71.148438 124.636719 L 72.359375 124.636719 L 71.558594 132.839844 L 70.5625 143.035156 L 68.101562 168.167969 L 68.097656 168.253906 L 66.761719 181.882812 L 65.574219 194.070312 C 65.546875 194.332031 65.539062 194.632812 65.574219 194.898438 C 65.972656 198.246094 71.035156 200.765625 76.878906 200.539062 C 82.71875 200.3125 87.132812 197.417969 86.734375 194.070312 L 84.273438 168.476562 " fill-opacity="1" fill-rule="nonzero"></path></g><path fill="#f07b0a" d="M 192.417969 230.070312 C 192.417969 230.382812 192.386719 230.691406 192.328125 230.996094 C 192.265625 231.300781 192.175781 231.597656 192.054688 231.886719 C 191.9375 232.175781 191.789062 232.449219 191.617188 232.707031 C 191.445312 232.964844 191.246094 233.207031 191.027344 233.425781 C 190.808594 233.644531 190.566406 233.84375 190.308594 234.015625 C 190.050781 234.1875 189.777344 234.335938 189.488281 234.453125 C 189.199219 234.574219 188.902344 234.664062 188.597656 234.726562 C 188.292969 234.785156 187.984375 234.816406 187.671875 234.816406 C 187.359375 234.816406 187.050781 234.785156 186.746094 234.726562 C 186.441406 234.664062 186.144531 234.574219 185.855469 234.453125 C 185.570312 234.335938 185.296875 234.1875 185.035156 234.015625 C 184.777344 233.84375 184.539062 233.644531 184.316406 233.425781 C 184.097656 233.207031 183.902344 232.964844 183.726562 232.707031 C 183.554688 232.449219 183.40625 232.175781 183.289062 231.886719 C 183.167969 231.597656 183.078125 231.300781 183.019531 230.996094 C 182.957031 230.691406 182.925781 230.382812 182.925781 230.070312 C 182.925781 229.757812 182.957031 229.449219 183.019531 229.144531 C 183.078125 228.839844 183.167969 228.542969 183.289062 228.253906 C 183.40625 227.96875 183.554688 227.695312 183.726562 227.433594 C 183.902344 227.175781 184.097656 226.9375 184.316406 226.714844 C 184.539062 226.496094 184.777344 226.296875 185.035156 226.125 C 185.296875 225.953125 185.570312 225.804688 185.855469 225.6875 C 186.144531 225.566406 186.441406 225.476562 186.746094 225.417969 C 187.050781 225.355469 187.359375 225.324219 187.671875 225.324219 C 187.984375 225.324219 188.292969 225.355469 188.597656 225.417969 C 188.902344 225.476562 189.199219 225.566406 189.488281 225.6875 C 189.777344 225.804688 190.050781 225.953125 190.308594 226.125 C 190.566406 226.296875 190.808594 226.496094 191.027344 226.714844 C 191.246094 226.9375 191.445312 227.175781 191.617188 227.433594 C 191.789062 227.695312 191.9375 227.96875 192.054688 228.253906 C 192.175781 228.542969 192.265625 228.839844 192.328125 229.144531 C 192.386719 229.449219 192.417969 229.757812 192.417969 230.070312 Z M 192.417969 230.070312 " fill-opacity="1" fill-rule="nonzero"></path><path fill="#f07b0a" d="M 192.417969 248.824219 C 192.417969 249.132812 192.386719 249.441406 192.328125 249.75 C 192.265625 250.054688 192.175781 250.351562 192.054688 250.636719 C 191.9375 250.925781 191.789062 251.199219 191.617188 251.457031 C 191.445312 251.71875 191.246094 251.957031 191.027344 252.179688 C 190.808594 252.398438 190.566406 252.59375 190.308594 252.769531 C 190.050781 252.941406 189.777344 253.085938 189.488281 253.207031 C 189.199219 253.324219 188.902344 253.414062 188.597656 253.476562 C 188.292969 253.539062 187.984375 253.566406 187.671875 253.566406 C 187.359375 253.566406 187.050781 253.539062 186.746094 253.476562 C 186.441406 253.414062 186.144531 253.324219 185.855469 253.207031 C 185.570312 253.085938 185.296875 252.941406 185.035156 252.769531 C 184.777344 252.59375 184.539062 252.398438 184.316406 252.179688 C 184.097656 251.957031 183.902344 251.71875 183.726562 251.457031 C 183.554688 251.199219 183.40625 250.925781 183.289062 250.636719 C 183.167969 250.351562 183.078125 250.054688 183.019531 249.75 C 182.957031 249.441406 182.925781 249.132812 182.925781 248.824219 C 182.925781 248.511719 182.957031 248.203125 183.019531 247.898438 C 183.078125 247.589844 183.167969 247.292969 183.289062 247.007812 C 183.40625 246.71875 183.554688 246.445312 183.726562 246.1875 C 183.902344 245.925781 184.097656 245.6875 184.316406 245.46875 C 184.539062 245.246094 184.777344 245.050781 185.035156 244.878906 C 185.296875 244.703125 185.570312 244.558594 185.855469 244.4375 C 186.144531 244.320312 186.441406 244.230469 186.746094 244.167969 C 187.050781 244.109375 187.359375 244.078125 187.671875 244.078125 C 187.984375 244.078125 188.292969 244.109375 188.597656 244.167969 C 188.902344 244.230469 189.199219 244.320312 189.488281 244.4375 C 189.777344 244.558594 190.050781 244.703125 190.308594 244.878906 C 190.566406 245.050781 190.808594 245.246094 191.027344 245.46875 C 191.246094 245.6875 191.445312 245.925781 191.617188 246.1875 C 191.789062 246.445312 191.9375 246.71875 192.054688 247.007812 C 192.175781 247.292969 192.265625 247.589844 192.328125 247.898438 C 192.386719 248.203125 192.417969 248.511719 192.417969 248.824219 Z M 192.417969 248.824219 " fill-opacity="1" fill-rule="nonzero"></path><path fill="#013b55" d="M 101.847656 348.996094 C 101.535156 348.996094 101.226562 348.964844 100.921875 348.90625 C 100.617188 348.84375 100.320312 348.753906 100.03125 348.636719 C 99.742188 348.515625 99.46875 348.371094 99.210938 348.199219 C 98.953125 348.023438 98.710938 347.828125 98.492188 347.605469 C 98.269531 347.386719 98.074219 347.148438 97.902344 346.886719 C 97.726562 346.628906 97.582031 346.355469 97.464844 346.066406 C 97.34375 345.78125 97.253906 345.484375 97.191406 345.179688 C 97.132812 344.871094 97.101562 344.5625 97.101562 344.253906 L 97.101562 320.414062 C 97.445312 291.679688 106.289062 269.964844 124.054688 253.984375 L 154.039062 226.578125 C 155.0625 225.820312 155.996094 224.96875 156.839844 224.011719 C 157.683594 223.058594 158.417969 222.027344 159.039062 220.917969 C 159.664062 219.808594 160.167969 218.648438 160.546875 217.433594 C 160.925781 216.21875 161.175781 214.976562 161.289062 213.710938 C 161.179688 212.488281 160.945312 211.289062 160.582031 210.117188 C 160.214844 208.945312 159.734375 207.824219 159.132812 206.753906 C 158.53125 205.683594 157.820312 204.691406 157.007812 203.769531 C 156.195312 202.851562 155.292969 202.027344 154.304688 201.296875 L 135.328125 183.988281 L 123.9375 173.585938 C 106.175781 157.605469 97.367188 135.894531 96.988281 107.234375 L 96.988281 82.75 C 96.988281 82.441406 97.019531 82.132812 97.078125 81.824219 C 97.140625 81.519531 97.230469 81.222656 97.347656 80.933594 C 97.46875 80.648438 97.613281 80.375 97.789062 80.113281 C 97.960938 79.855469 98.15625 79.617188 98.378906 79.394531 C 98.597656 79.175781 98.835938 78.980469 99.097656 78.804688 C 99.355469 78.632812 99.628906 78.488281 99.917969 78.367188 C 100.203125 78.25 100.5 78.160156 100.808594 78.097656 C 101.113281 78.035156 101.421875 78.007812 101.734375 78.007812 C 102.042969 78.007812 102.351562 78.035156 102.660156 78.097656 C 102.964844 78.160156 103.261719 78.25 103.546875 78.367188 C 103.835938 78.488281 104.109375 78.632812 104.367188 78.804688 C 104.628906 78.980469 104.867188 79.175781 105.089844 79.394531 C 105.308594 79.617188 105.503906 79.855469 105.679688 80.113281 C 105.851562 80.375 105.996094 80.648438 106.117188 80.933594 C 106.234375 81.222656 106.324219 81.519531 106.386719 81.824219 C 106.449219 82.132812 106.476562 82.441406 106.476562 82.75 L 106.476562 107.082031 C 106.820312 133.238281 114.375 152.140625 130.277344 166.488281 L 141.667969 176.890625 L 160.644531 194.199219 C 162.140625 195.355469 163.492188 196.660156 164.707031 198.113281 C 165.917969 199.566406 166.957031 201.128906 167.828125 202.808594 C 168.703125 204.484375 169.382812 206.238281 169.875 208.0625 C 170.367188 209.886719 170.65625 211.746094 170.742188 213.632812 C 170.636719 215.574219 170.328125 217.476562 169.816406 219.347656 C 169.300781 221.21875 168.59375 223.015625 167.691406 224.734375 C 166.792969 226.453125 165.71875 228.058594 164.472656 229.546875 C 163.226562 231.035156 161.835938 232.375 160.304688 233.5625 L 130.316406 260.933594 C 114.375 275.28125 106.820312 294.183594 106.476562 320.375 L 106.476562 344.175781 C 106.484375 344.484375 106.457031 344.792969 106.402344 345.097656 C 106.347656 345.402344 106.261719 345.699219 106.148438 345.988281 C 106.035156 346.277344 105.894531 346.554688 105.730469 346.8125 C 105.5625 347.074219 105.371094 347.316406 105.15625 347.539062 C 104.941406 347.765625 104.707031 347.964844 104.453125 348.140625 C 104.199219 348.320312 103.929688 348.472656 103.644531 348.597656 C 103.363281 348.722656 103.066406 348.816406 102.765625 348.886719 C 102.464844 348.953125 102.15625 348.988281 101.847656 348.996094 Z M 101.847656 348.996094 " fill-opacity="1" fill-rule="nonzero"></path><path fill="#013b55" d="M 273.460938 348.996094 C 273.148438 348.996094 272.839844 348.964844 272.535156 348.90625 C 272.230469 348.84375 271.933594 348.753906 271.644531 348.636719 C 271.355469 348.515625 271.082031 348.371094 270.824219 348.199219 C 270.566406 348.023438 270.324219 347.828125 270.105469 347.605469 C 269.886719 347.386719 269.6875 347.148438 269.515625 346.886719 C 269.34375 346.628906 269.195312 346.355469 269.078125 346.066406 C 268.957031 345.78125 268.867188 345.484375 268.808594 345.179688 C 268.746094 344.871094 268.714844 344.5625 268.714844 344.253906 L 268.714844 320.414062 C 268.410156 294.261719 260.859375 275.355469 244.914062 261.007812 L 214.890625 233.601562 C 213.367188 232.421875 211.988281 231.09375 210.75 229.617188 C 209.511719 228.140625 208.449219 226.546875 207.554688 224.839844 C 206.660156 223.136719 205.957031 221.351562 205.445312 219.496094 C 204.9375 217.636719 204.628906 215.746094 204.527344 213.824219 C 204.617188 211.945312 204.90625 210.097656 205.386719 208.28125 C 205.871094 206.464844 206.539062 204.71875 207.394531 203.042969 C 208.246094 201.367188 209.269531 199.800781 210.453125 198.34375 C 211.640625 196.882812 212.96875 195.566406 214.433594 194.390625 L 235.046875 175.410156 C 238.347656 172.371094 241.613281 169.375 244.914062 166.414062 C 260.859375 152.066406 268.410156 133.160156 268.714844 106.96875 L 268.714844 82.75 C 268.714844 82.441406 268.746094 82.132812 268.804688 81.824219 C 268.867188 81.519531 268.957031 81.222656 269.078125 80.933594 C 269.195312 80.648438 269.34375 80.375 269.515625 80.113281 C 269.6875 79.855469 269.886719 79.617188 270.105469 79.394531 C 270.324219 79.175781 270.566406 78.980469 270.824219 78.804688 C 271.082031 78.632812 271.355469 78.488281 271.644531 78.367188 C 271.933594 78.25 272.230469 78.160156 272.535156 78.097656 C 272.839844 78.035156 273.148438 78.007812 273.460938 78.007812 C 273.773438 78.007812 274.082031 78.035156 274.386719 78.097656 C 274.691406 78.160156 274.988281 78.25 275.277344 78.367188 C 275.5625 78.488281 275.835938 78.632812 276.097656 78.804688 C 276.355469 78.980469 276.59375 79.175781 276.816406 79.394531 C 277.035156 79.617188 277.234375 79.855469 277.40625 80.113281 C 277.578125 80.375 277.726562 80.648438 277.84375 80.933594 C 277.964844 81.222656 278.054688 81.519531 278.113281 81.824219 C 278.175781 82.132812 278.207031 82.441406 278.207031 82.75 L 278.207031 107.082031 C 277.863281 135.816406 269.058594 157.53125 251.253906 173.550781 L 241.460938 182.46875 L 220.960938 201.183594 C 219.976562 201.925781 219.074219 202.757812 218.265625 203.6875 C 217.453125 204.621094 216.746094 205.625 216.148438 206.703125 C 215.550781 207.785156 215.070312 208.914062 214.710938 210.09375 C 214.351562 211.273438 214.121094 212.480469 214.015625 213.710938 C 214.136719 214.96875 214.382812 216.203125 214.765625 217.40625 C 215.144531 218.613281 215.648438 219.765625 216.273438 220.867188 C 216.898438 221.964844 217.632812 222.988281 218.472656 223.929688 C 219.3125 224.875 220.246094 225.71875 221.265625 226.464844 L 251.292969 253.910156 C 269.058594 269.890625 277.863281 291.601562 278.207031 320.261719 L 278.207031 344.175781 C 278.210938 344.492188 278.183594 344.804688 278.128906 345.113281 C 278.070312 345.421875 277.984375 345.722656 277.867188 346.015625 C 277.75 346.308594 277.605469 346.585938 277.433594 346.847656 C 277.261719 347.113281 277.0625 347.355469 276.84375 347.582031 C 276.621094 347.804688 276.382812 348.003906 276.121094 348.183594 C 275.859375 348.359375 275.585938 348.507812 275.292969 348.628906 C 275.003906 348.75 274.703125 348.84375 274.394531 348.902344 C 274.085938 348.964844 273.773438 348.996094 273.460938 348.996094 Z M 273.460938 348.996094 " fill-opacity="1" fill-rule="nonzero"></path><g clip-path="url(#4a612aafdc)"><path fill="#013b55" d="M 293.085938 83.015625 L 82.222656 83.015625 C 81.910156 83.015625 81.601562 82.988281 81.296875 82.925781 C 80.992188 82.863281 80.695312 82.773438 80.40625 82.65625 C 80.117188 82.535156 79.84375 82.390625 79.585938 82.21875 C 79.328125 82.042969 79.085938 81.847656 78.867188 81.628906 C 78.644531 81.40625 78.449219 81.167969 78.277344 80.90625 C 78.105469 80.648438 77.957031 80.375 77.839844 80.085938 C 77.71875 79.800781 77.628906 79.503906 77.566406 79.199219 C 77.507812 78.890625 77.476562 78.582031 77.476562 78.273438 L 77.476562 57.734375 C 77.476562 57.425781 77.507812 57.117188 77.566406 56.808594 C 77.628906 56.503906 77.71875 56.207031 77.839844 55.921875 C 77.957031 55.632812 78.105469 55.359375 78.277344 55.101562 C 78.449219 54.839844 78.644531 54.601562 78.867188 54.382812 C 79.085938 54.160156 79.328125 53.964844 79.585938 53.789062 C 79.84375 53.617188 80.117188 53.472656 80.40625 53.351562 C 80.695312 53.234375 80.992188 53.144531 81.296875 53.082031 C 81.601562 53.023438 81.910156 52.992188 82.222656 52.992188 L 293.085938 52.992188 C 293.402344 52.984375 293.714844 53.007812 294.027344 53.0625 C 294.339844 53.117188 294.640625 53.203125 294.9375 53.320312 C 295.230469 53.433594 295.511719 53.578125 295.777344 53.75 C 296.042969 53.921875 296.289062 54.117188 296.515625 54.339844 C 296.742188 54.5625 296.941406 54.800781 297.121094 55.0625 C 297.300781 55.324219 297.449219 55.601562 297.574219 55.894531 C 297.695312 56.183594 297.789062 56.484375 297.851562 56.796875 C 297.914062 57.105469 297.945312 57.417969 297.945312 57.734375 L 297.945312 78.273438 C 297.945312 78.589844 297.914062 78.902344 297.851562 79.210938 C 297.789062 79.523438 297.695312 79.824219 297.574219 80.113281 C 297.449219 80.40625 297.300781 80.683594 297.121094 80.945312 C 296.941406 81.207031 296.742188 81.445312 296.515625 81.667969 C 296.289062 81.890625 296.042969 82.085938 295.777344 82.257812 C 295.511719 82.429688 295.230469 82.574219 294.9375 82.6875 C 294.640625 82.804688 294.339844 82.890625 294.027344 82.945312 C 293.714844 83 293.402344 83.023438 293.085938 83.015625 Z M 293.085938 83.015625 " fill-opacity="1" fill-rule="nonzero"></path></g><g clip-path="url(#3a5708f443)"><path fill="#013b55" d="M 293.085938 371.394531 L 82.222656 371.394531 C 81.910156 371.394531 81.601562 371.363281 81.296875 371.300781 C 80.992188 371.242188 80.695312 371.152344 80.40625 371.03125 C 80.117188 370.914062 79.84375 370.765625 79.585938 370.59375 C 79.328125 370.421875 79.085938 370.222656 78.867188 370.003906 C 78.644531 369.78125 78.449219 369.542969 78.277344 369.285156 C 78.105469 369.023438 77.957031 368.75 77.839844 368.464844 C 77.71875 368.175781 77.628906 367.878906 77.566406 367.574219 C 77.507812 367.269531 77.476562 366.960938 77.476562 366.648438 L 77.476562 346.226562 C 77.476562 345.914062 77.507812 345.605469 77.566406 345.300781 C 77.628906 344.996094 77.71875 344.699219 77.839844 344.410156 C 77.957031 344.121094 78.105469 343.847656 78.277344 343.589844 C 78.449219 343.332031 78.644531 343.089844 78.867188 342.871094 C 79.085938 342.652344 79.328125 342.453125 79.585938 342.28125 C 79.84375 342.109375 80.117188 341.960938 80.40625 341.84375 C 80.695312 341.722656 80.992188 341.632812 81.296875 341.574219 C 81.601562 341.511719 81.910156 341.480469 82.222656 341.480469 L 293.085938 341.480469 C 293.402344 341.472656 293.714844 341.496094 294.027344 341.550781 C 294.339844 341.609375 294.640625 341.691406 294.9375 341.808594 C 295.230469 341.925781 295.511719 342.070312 295.777344 342.242188 C 296.042969 342.414062 296.289062 342.609375 296.515625 342.828125 C 296.742188 343.050781 296.941406 343.292969 297.121094 343.554688 C 297.300781 343.816406 297.449219 344.09375 297.574219 344.382812 C 297.695312 344.675781 297.789062 344.976562 297.851562 345.285156 C 297.914062 345.597656 297.945312 345.910156 297.945312 346.226562 L 297.945312 366.761719 C 297.9375 367.074219 297.898438 367.382812 297.832031 367.6875 C 297.761719 367.988281 297.664062 368.285156 297.539062 368.570312 C 297.414062 368.855469 297.261719 369.125 297.082031 369.378906 C 296.902344 369.632812 296.699219 369.871094 296.472656 370.085938 C 296.25 370.300781 296.003906 370.488281 295.742188 370.65625 C 295.476562 370.824219 295.199219 370.964844 294.910156 371.074219 C 294.621094 371.1875 294.320312 371.269531 294.011719 371.324219 C 293.707031 371.378906 293.398438 371.402344 293.085938 371.394531 Z M 293.085938 371.394531 " fill-opacity="1" fill-rule="nonzero"></path></g><path fill="#f07b0a" d="M 187.863281 214.203125 C 187.398438 214.226562 186.933594 214.210938 186.472656 214.148438 C 186.011719 214.085938 185.558594 213.984375 185.113281 213.839844 C 184.671875 213.695312 184.246094 213.511719 183.835938 213.289062 C 183.429688 213.066406 183.042969 212.808594 182.679688 212.515625 C 182.320312 212.222656 181.988281 211.898438 181.6875 211.542969 C 181.382812 211.1875 181.117188 210.808594 180.886719 210.402344 C 180.652344 210 180.460938 209.578125 180.304688 209.136719 C 180.152344 208.699219 180.039062 208.25 179.96875 207.789062 C 179.769531 205.464844 179.21875 203.230469 178.3125 201.082031 C 177.402344 198.9375 176.183594 196.984375 174.652344 195.222656 C 174.273438 194.882812 132.898438 155.441406 131.152344 153.46875 C 130.914062 153.191406 130.714844 152.890625 130.546875 152.566406 C 130.382812 152.242188 130.253906 151.902344 130.164062 151.550781 C 130.078125 151.195312 130.03125 150.839844 130.023438 150.472656 C 130.019531 150.109375 130.054688 149.75 130.128906 149.394531 C 130.207031 149.039062 130.324219 148.695312 130.480469 148.367188 C 130.636719 148.035156 130.828125 147.730469 131.054688 147.445312 C 131.28125 147.160156 131.535156 146.902344 131.824219 146.675781 C 132.109375 146.449219 132.417969 146.261719 132.746094 146.105469 C 137.113281 144 141.640625 142.328125 146.332031 141.089844 C 151.019531 139.851562 155.78125 139.070312 160.621094 138.746094 C 165.457031 138.421875 170.285156 138.558594 175.09375 139.15625 C 179.90625 139.757812 184.617188 140.808594 189.230469 142.308594 C 218.269531 151.648438 225.289062 148.078125 244.003906 138.511719 C 244.457031 138.273438 244.933594 138.113281 245.441406 138.03125 C 245.945312 137.949219 246.449219 137.949219 246.957031 138.035156 C 247.460938 138.121094 247.9375 138.285156 248.386719 138.53125 C 248.839844 138.777344 249.238281 139.085938 249.585938 139.460938 C 249.925781 139.835938 250.199219 140.253906 250.40625 140.714844 C 250.609375 141.175781 250.738281 141.65625 250.789062 142.160156 C 250.84375 142.660156 250.8125 143.160156 250.703125 143.652344 C 250.59375 144.144531 250.410156 144.609375 250.152344 145.042969 C 247.039062 150.496094 243.144531 155.316406 238.460938 159.503906 C 234.398438 163.300781 219.480469 177.34375 210.714844 185.847656 C 206.917969 189.300781 204.449219 191.847656 203.804688 192.414062 C 201.496094 194.386719 199.625 196.707031 198.183594 199.378906 C 196.742188 202.050781 195.832031 204.890625 195.453125 207.902344 C 195.414062 208.359375 195.328125 208.808594 195.199219 209.25 C 195.070312 209.6875 194.898438 210.109375 194.6875 210.515625 C 194.472656 210.921875 194.222656 211.304688 193.933594 211.660156 C 193.644531 212.019531 193.324219 212.34375 192.972656 212.636719 C 192.617188 212.929688 192.238281 213.183594 191.835938 213.402344 C 191.433594 213.621094 191.011719 213.796875 190.574219 213.929688 C 190.136719 214.066406 189.6875 214.15625 189.230469 214.203125 C 188.773438 214.246094 188.320312 214.25 187.863281 214.203125 Z M 187.863281 214.203125 " fill-opacity="1" fill-rule="nonzero"></path><path fill="#f07b0a" d="M 248.253906 331.042969 L 127.128906 331.042969 C 126.816406 331.042969 126.507812 331.011719 126.203125 330.953125 C 125.894531 330.890625 125.601562 330.800781 125.3125 330.679688 C 125.023438 330.5625 124.75 330.414062 124.492188 330.242188 C 124.234375 330.070312 123.992188 329.871094 123.773438 329.652344 C 123.550781 329.433594 123.355469 329.191406 123.183594 328.933594 C 123.007812 328.675781 122.863281 328.402344 122.742188 328.113281 C 122.625 327.824219 122.535156 327.527344 122.472656 327.222656 C 122.414062 326.917969 122.382812 326.609375 122.382812 326.296875 C 122.433594 324.191406 122.585938 322.089844 122.839844 319.996094 C 123.09375 317.90625 123.449219 315.828125 123.902344 313.769531 C 124.359375 311.714844 124.910156 309.679688 125.5625 307.675781 C 126.214844 305.671875 126.960938 303.703125 127.800781 301.769531 C 128.644531 299.839844 129.574219 297.949219 130.601562 296.109375 C 131.625 294.265625 132.734375 292.476562 133.933594 290.742188 C 135.128906 289.007812 136.410156 287.335938 137.769531 285.722656 C 139.125 284.113281 140.5625 282.570312 142.070312 281.097656 C 143.578125 279.625 145.152344 278.230469 146.796875 276.910156 C 148.441406 275.589844 150.144531 274.351562 151.90625 273.195312 C 153.671875 272.042969 155.484375 270.972656 157.351562 269.996094 C 159.21875 269.015625 161.128906 268.128906 163.078125 267.332031 C 165.03125 266.539062 167.019531 265.839844 169.039062 265.234375 C 171.058594 264.632812 173.101562 264.128906 175.171875 263.722656 C 177.238281 263.320312 179.324219 263.015625 181.421875 262.8125 C 183.519531 262.609375 185.621094 262.507812 187.730469 262.507812 C 189.835938 262.507812 191.941406 262.609375 194.039062 262.8125 C 196.136719 263.015625 198.21875 263.320312 200.289062 263.722656 C 202.355469 264.128906 204.402344 264.632812 206.421875 265.234375 C 208.441406 265.839844 210.425781 266.539062 212.378906 267.332031 C 214.332031 268.128906 216.242188 269.015625 218.109375 269.996094 C 219.972656 270.972656 221.789062 272.042969 223.550781 273.195312 C 225.316406 274.351562 227.019531 275.589844 228.664062 276.910156 C 230.304688 278.230469 231.882812 279.625 233.390625 281.097656 C 234.898438 282.570312 236.332031 284.113281 237.691406 285.722656 C 239.050781 287.335938 240.328125 289.007812 241.527344 290.742188 C 242.722656 292.476562 243.835938 294.265625 244.859375 296.109375 C 245.882812 297.949219 246.816406 299.839844 247.65625 301.769531 C 248.5 303.703125 249.246094 305.671875 249.898438 307.675781 C 250.546875 309.679688 251.101562 311.714844 251.554688 313.769531 C 252.011719 315.828125 252.367188 317.90625 252.621094 319.996094 C 252.875 322.089844 253.027344 324.191406 253.078125 326.296875 C 253.078125 326.613281 253.046875 326.925781 252.984375 327.234375 C 252.921875 327.542969 252.828125 327.839844 252.707031 328.132812 C 252.585938 328.421875 252.4375 328.695312 252.261719 328.957031 C 252.085938 329.21875 251.882812 329.457031 251.660156 329.679688 C 251.433594 329.902344 251.191406 330.097656 250.929688 330.269531 C 250.664062 330.441406 250.386719 330.585938 250.09375 330.703125 C 249.800781 330.820312 249.5 330.90625 249.191406 330.964844 C 248.882812 331.019531 248.570312 331.046875 248.253906 331.042969 Z M 248.253906 331.042969 " fill-opacity="1" fill-rule="nonzero"></path><g clip-path="url(#2c1cafc043)"><g clip-path="url(#c005fceaa4)"><path fill="#013b55" d="M 37.5 3.347656 L 337.910156 3.347656 L 337.910156 130.460938 L 37.5 130.460938 Z M 37.5 3.347656 " fill-opacity="1" fill-rule="nonzero"></path></g></g></svg></svg></g></g></svg></g></svg>